# File created by Blade
# Date/Time:  Fri Jan 16 15:45:48 2015
# Frame Rate: 120.000 fps
#------------------------------------------------------
:FULLY-SPECIFIED
:DEGREES
4132
root -5.597888 35.305067 -10.452613 0.934334 2.548185 -4.440691
Spine -7.235904 -1.887429 7.341760
Head 4.669486 -4.271563 -4.808537
LeftShoulder -21.245383 13.230694 -13.249481
LeftArm 20.344652 8.334093 -59.019524
LeftForeArm 13.895638 -0.000000 58.404322
LeftHand 5.579660 -0.000000 -4.589621
LeftHandThumb1 -26.253704 0.000000 33.147579
RightShoulder -13.929253 27.171325 -40.776508
RightArm 36.377410 76.343347 35.898146
RightForeArm -20.171250 0.000000 79.219094
RightHand 3.563577 -0.000000 -56.516826
RightHandThumb1 -24.326973 -0.000000 -32.862282
LeftUpLeg 6.036714 9.431701 5.490928
LeftLeg -8.470885 -0.000000 0.000000
LeftFoot -13.257689 24.043318 -9.679752
LeftToeBase 22.027944 -0.000000 -0.000000
RightUpLeg 5.770742 -9.959928 1.695267
RightLeg -4.263938 -0.000000 0.000000
RightFoot -5.247248 -28.084644 5.915645
RightToeBase 12.610285 -0.000000 -0.000000
4133
root -5.605134 35.302719 -10.454035 0.942418 2.509237 -4.450117
Spine -7.191265 -2.009198 7.390439
Head 4.510020 -4.076749 -4.915875
LeftShoulder -21.389848 13.390266 -13.115060
LeftArm 20.163657 7.801657 -58.861130
LeftForeArm 14.117498 -0.000000 60.175524
LeftHand 5.402198 0.000000 -4.538028
LeftHandThumb1 -26.253704 0.000000 33.147579
RightShoulder -13.853025 27.221438 -40.550348
RightArm 34.588428 76.248373 34.929539
RightForeArm -22.596962 -0.000000 78.502612
RightHand 4.698707 -0.000000 -56.859494
RightHandThumb1 -24.326973 -0.000000 -32.862282
LeftUpLeg 6.031238 9.461675 5.511247
LeftLeg -8.462512 -0.000000 0.000000
LeftFoot -13.276422 24.047535 -9.658533
LeftToeBase 22.028647 -0.000000 -0.000000
RightUpLeg 5.762996 -9.922323 1.715817
RightLeg -4.275343 -0.000000 0.000000
RightFoot -5.240880 -28.097981 5.811391
RightToeBase 12.710895 -0.000000 -0.000000
4134
root -5.612225 35.300504 -10.453580 0.939561 2.460127 -4.464819
Spine -7.149156 -2.115343 7.453260
Head 4.394396 -3.943690 -5.044527
LeftShoulder -21.513463 13.557197 -12.973163
LeftArm 19.946894 7.224019 -58.702579
LeftForeArm 14.361978 0.000000 61.952191
LeftHand 5.379605 -0.000000 -4.646730
LeftHandThumb1 -26.253704 0.000000 33.147579
RightShoulder -13.725202 27.097836 -40.207761
RightArm 33.562663 76.337708 34.608900
RightForeArm -25.037474 -0.000000 77.811549
RightHand 6.534536 -0.000000 -56.968309
RightHandThumb1 -24.326973 -0.000000 -32.862282
LeftUpLeg 6.045655 9.476456 5.538073
LeftLeg -8.463699 -0.000000 0.000000
LeftFoot -13.296573 24.090475 -9.629074
LeftToeBase 22.014834 -0.000000 -0.000000
RightUpLeg 5.777917 -9.877028 1.742044
RightLeg -4.310012 -0.000000 0.000000
RightFoot -5.231855 -28.106238 5.784253
RightToeBase 12.731820 -0.000000 -0.000000
4135
root -5.618861 35.298427 -10.453400 0.945048 2.377146 -4.483267
Spine -7.116752 -2.168606 7.519441
Head 4.297852 -3.855053 -5.166602
LeftShoulder -21.630356 13.714890 -12.827134
LeftArm 19.738417 6.694382 -58.517733
LeftForeArm 14.356285 -0.000000 63.723855
LeftHand 5.318054 -0.000000 -4.739920
LeftHandThumb1 -26.253704 0.000000 33.147579
RightShoulder -13.594006 27.038094 -39.958849
RightArm 31.452578 76.185820 33.247039
RightForeArm -26.804819 0.000000 77.143239
RightHand 6.267405 -0.000000 -59.675074
RightHandThumb1 -24.326973 -0.000000 -32.862282
LeftUpLeg 6.061966 9.558801 5.568351
LeftLeg -8.478836 -0.000000 0.000000
LeftFoot -13.331261 24.127714 -9.509340
LeftToeBase 22.285113 -0.000000 -0.000000
RightUpLeg 5.769515 -9.788940 1.768813
RightLeg -4.319720 -0.000000 0.000000
RightFoot -5.224565 -28.071783 5.816276
RightToeBase 12.635435 -0.000000 -0.000000
4136
root -5.625544 35.297538 -10.449425 0.970977 2.274238 -4.489895
Spine -7.139810 -2.226549 7.578383
Head 4.274675 -3.782054 -5.305994
LeftShoulder -21.746790 13.861728 -12.673364
LeftArm 19.461155 6.153920 -58.308708
LeftForeArm 14.558280 0.000000 65.527494
LeftHand 5.110612 -0.000000 -4.624168
LeftHandThumb1 -26.253704 0.000000 33.147579
RightShoulder -13.331448 26.969613 -39.603234
RightArm 28.711693 75.993947 31.140527
RightForeArm -28.114343 -0.000000 76.490892
RightHand 6.440404 -0.000000 -61.357979
RightHandThumb1 -24.326973 -0.000000 -32.862282
LeftUpLeg 6.081200 9.633382 5.584325
LeftLeg -8.510557 -0.000000 0.000000
LeftFoot -13.340282 24.153481 -9.529810
LeftToeBase 22.278615 -0.000000 -0.000000
RightUpLeg 5.748009 -9.667927 1.786372
RightLeg -4.328948 -0.000000 0.000000
RightFoot -5.229940 -28.077892 5.792288
RightToeBase 12.678395 -0.000000 -0.000000
4137
root -5.633982 35.296611 -10.447567 0.957518 2.211070 -4.497665
Spine -7.102790 -2.347511 7.642914
Head 4.232083 -3.723783 -5.447847
LeftShoulder -21.889564 14.038134 -12.545218
LeftArm 19.257707 5.568548 -58.093658
LeftForeArm 14.654410 -0.000000 67.303039
LeftHand 4.853359 0.000000 -4.426138
LeftHandThumb1 -26.253704 0.000000 33.147579
RightShoulder -13.060812 26.838788 -39.269659
RightArm 26.349529 75.913746 29.506509
RightForeArm -29.418376 -0.000000 76.042886
RightHand 5.701388 -0.000000 -62.117366
RightHandThumb1 -24.326973 -0.000000 -32.862282
LeftUpLeg 6.110578 9.656476 5.609443
LeftLeg -8.505739 -0.000000 0.000000
LeftFoot -13.356688 24.178767 -9.542958
LeftToeBase 22.268922 -0.000000 -0.000000
RightUpLeg 5.772200 -9.577224 1.808127
RightLeg -4.358435 -0.000000 0.000000
RightFoot -5.231995 -28.118448 5.786930
RightToeBase 12.735244 -0.000000 -0.000000
4138
root -5.643325 35.295448 -10.444753 0.913459 2.154691 -4.503715
Spine -7.015250 -2.475886 7.688937
Head 4.169277 -3.714064 -5.556076
LeftShoulder -22.066365 14.219384 -12.425205
LeftArm 19.112141 4.938950 -57.865417
LeftForeArm 14.822486 -0.000000 69.088586
LeftHand 4.773035 -0.000000 -4.495775
LeftHandThumb1 -26.253704 0.000000 33.147579
RightShoulder -12.684131 26.688477 -38.884619
RightArm 22.968607 75.697558 26.831453
RightForeArm -30.378889 -0.000000 75.641552
RightHand 4.991264 -0.000000 -63.649733
RightHandThumb1 -24.326973 -0.000000 -32.862282
LeftUpLeg 6.168970 9.678196 5.640058
LeftLeg -8.496176 -0.000000 0.000000
LeftFoot -13.386986 24.206631 -9.554894
LeftToeBase 22.277564 -0.000000 -0.000000
RightUpLeg 5.827493 -9.523662 1.819370
RightLeg -4.379999 -0.000000 0.000000
RightFoot -5.225816 -28.109743 5.766815
RightToeBase 12.719210 -0.000000 -0.000000
4139
root -5.652375 35.295141 -10.441183 0.851716 2.092988 -4.500121
Spine -6.910989 -2.572258 7.717812
Head 4.138677 -3.778138 -5.649710
LeftShoulder -22.187044 14.390958 -12.307552
LeftArm 18.960700 4.253677 -57.599259
LeftForeArm 14.850830 -0.000000 70.842652
LeftHand 4.869028 -0.000000 -4.675544
LeftHandThumb1 -26.253704 0.000000 33.147579
RightShoulder -12.306986 26.545539 -38.515064
RightArm 19.474276 75.506666 24.064242
RightForeArm -31.397132 -0.000000 75.466270
RightHand 5.011344 -0.000000 -63.808188
RightHandThumb1 -24.326973 -0.000000 -32.862282
LeftUpLeg 6.245207 9.730043 5.661613
LeftLeg -8.484524 -0.000000 0.000000
LeftFoot -13.395359 24.207773 -9.580874
LeftToeBase 22.223950 -0.000000 -0.000000
RightUpLeg 5.908072 -9.441943 1.815357
RightLeg -4.409162 -0.000000 0.000000
RightFoot -5.220858 -28.106227 5.774798
RightToeBase 12.688429 -0.000000 -0.000000
4140
root -5.662558 35.295112 -10.440230 0.818994 2.050955 -4.502270
Spine -6.841808 -2.664864 7.751351
Head 4.116439 -3.870325 -5.725653
LeftShoulder -22.307882 14.531230 -12.185039
LeftArm 18.796705 3.645421 -57.288705
LeftForeArm 15.111439 -0.000000 72.628380
LeftHand 4.677529 0.000000 -4.758769
LeftHandThumb1 -26.253704 0.000000 33.147579
RightShoulder -11.928220 26.220026 -38.076145
RightArm 16.129274 75.305297 21.412914
RightForeArm -32.237241 0.000000 75.353209
RightHand 5.098117 -0.000000 -64.036763
RightHandThumb1 -24.326973 -0.000000 -32.862282
LeftUpLeg 6.275905 9.715095 5.684247
LeftLeg -8.451994 -0.000000 0.000000
LeftFoot -13.414092 24.236975 -9.678772
LeftToeBase 22.078793 -0.000000 -0.000000
RightUpLeg 5.949161 -9.360991 1.827867
RightLeg -4.429877 -0.000000 0.000000
RightFoot -5.215796 -28.125497 5.750671
RightToeBase 12.710489 -0.000000 -0.000000
4141
root -5.675075 35.294944 -10.437507 0.753893 1.985717 -4.512646
Spine -6.722008 -2.747253 7.780302
Head 4.073663 -3.956629 -5.758025
LeftShoulder -22.469181 14.664786 -12.075507
LeftArm 18.684577 3.054782 -56.951376
LeftForeArm 15.492401 -0.000000 74.394308
LeftHand 4.530478 0.000000 -4.624486
LeftHandThumb1 -26.253704 0.000000 33.147579
RightShoulder -11.603088 25.988061 -37.643155
RightArm 12.892550 74.846560 18.857267
RightForeArm -33.219126 -0.000000 75.265039
RightHand 4.955210 0.000000 -64.504425
RightHandThumb1 -24.326973 -0.000000 -32.862282
LeftUpLeg 6.348655 9.764090 5.730061
LeftLeg -8.431347 -0.000000 0.000000
LeftFoot -13.453302 24.260227 -9.619554
LeftToeBase 22.248432 -0.000000 -0.000000
RightUpLeg 6.021167 -9.281011 1.849581
RightLeg -4.445755 -0.000000 0.000000
RightFoot -5.211233 -28.144456 5.755285
RightToeBase 12.661852 -0.000000 -0.000000
4142
root -5.689526 35.294524 -10.432405 0.679174 1.890865 -4.511575
Spine -6.585092 -2.803544 7.768828
Head 4.017799 -4.011785 -5.722493
LeftShoulder -22.647872 14.819510 -11.962057
LeftArm 18.625623 2.400516 -56.607366
LeftForeArm 15.823002 -0.000000 76.110776
LeftHand 4.523939 -0.000000 -4.860901
LeftHandThumb1 -26.253704 0.000000 33.147579
RightShoulder -11.253399 25.705256 -37.106594
RightArm 9.780286 74.306252 16.325831
RightForeArm -33.933680 -0.000000 75.243665
RightHand 4.938166 -0.000000 -64.734779
RightHandThumb1 -24.326973 -0.000000 -32.862282
LeftUpLeg 6.440711 9.847440 5.769702
LeftLeg -8.406668 -0.000000 0.000000
LeftFoot -13.491114 24.265571 -9.650649
LeftToeBase 22.278251 -0.000000 -0.000000
RightUpLeg 6.108382 -9.133404 1.863544
RightLeg -4.471305 -0.000000 0.000000
RightFoot -5.209366 -28.189907 5.732953
RightToeBase 12.681300 -0.000000 -0.000000
